<?xml version="1.0" encoding="UTF-8"?>
<svg width="700pt" height="700pt" version="1.1" viewBox="0 0 700 700" xmlns="http://www.w3.org/2000/svg" xmlns:xlink="http://www.w3.org/1999/xlink">
 <defs>
  <symbol id="l" overflow="visible">
   <path d="m13.016-0.78125c-0.66797 0.35547-1.3672 0.62109-2.0938 0.79688-0.73047 0.17578-1.4922 0.26562-2.2812 0.26562-2.3555 0-4.2266-0.66016-5.6094-1.9844-1.375-1.3203-2.0625-3.1133-2.0625-5.375 0-2.2578 0.6875-4.0469 2.0625-5.3594 1.3828-1.3203 3.2539-1.9844 5.6094-1.9844 0.78906 0 1.5508 0.089844 2.2812 0.26562 0.72656 0.17969 1.4258 0.4375 2.0938 0.78125v2.9375c-0.67969-0.46875-1.3438-0.80469-2-1.0156-0.65625-0.21875-1.3516-0.32812-2.0781-0.32812-1.3047 0-2.3281 0.42188-3.0781 1.2656-0.74219 0.83594-1.1094 1.9805-1.1094 3.4375 0 1.4688 0.36719 2.6211 1.1094 3.4531 0.75 0.83594 1.7734 1.25 3.0781 1.25 0.72656 0 1.4219-0.10156 2.0781-0.3125 0.65625-0.21875 1.3203-0.5625 2-1.0312z"/>
  </symbol>
  <symbol id="c" overflow="visible">
   <path d="m9.5312-7.7344c-0.30469-0.13281-0.60156-0.23438-0.89062-0.29688-0.29297-0.070312-0.58984-0.10938-0.89062-0.10938-0.875 0-1.5469 0.28125-2.0156 0.84375-0.46875 0.55469-0.70312 1.3555-0.70312 2.4062v4.8906h-3.4062v-10.625h3.4062v1.7344c0.4375-0.6875 0.9375-1.1914 1.5-1.5156 0.57031-0.32031 1.2539-0.48438 2.0469-0.48438 0.10156 0 0.22266 0.007813 0.35938 0.015625 0.13281 0.011719 0.32812 0.03125 0.57812 0.0625z"/>
  </symbol>
  <symbol id="b" overflow="visible">
   <path d="m12.25-5.3438v0.96875h-7.9531c0.082031 0.80469 0.36719 1.4023 0.85938 1.7969 0.5 0.39844 1.1914 0.59375 2.0781 0.59375 0.70703 0 1.4375-0.10156 2.1875-0.3125 0.75-0.21875 1.5195-0.53906 2.3125-0.96875v2.625c-0.80469 0.30469-1.6055 0.53125-2.4062 0.6875-0.80469 0.15625-1.6055 0.23438-2.4062 0.23438-1.9297 0-3.4297-0.48828-4.5-1.4688-1.0625-0.97656-1.5938-2.3516-1.5938-4.125 0-1.7266 0.52344-3.0859 1.5781-4.0781 1.0508-1 2.4922-1.5 4.3281-1.5 1.6641 0 3 0.50781 4 1.5156 1.0078 1 1.5156 2.3438 1.5156 4.0312zm-3.5-1.125c0-0.64453-0.1875-1.1641-0.5625-1.5625-0.375-0.39453-0.87109-0.59375-1.4844-0.59375-0.65625 0-1.1953 0.1875-1.6094 0.5625-0.40625 0.36719-0.65625 0.89844-0.75 1.5938z"/>
  </symbol>
  <symbol id="j" overflow="visible">
   <path d="m6.3906-4.7812c-0.71094 0-1.2422 0.12109-1.5938 0.35938-0.35547 0.24219-0.53125 0.59375-0.53125 1.0625 0 0.42969 0.14062 0.76562 0.42188 1.0156 0.28906 0.24219 0.69141 0.35938 1.2031 0.35938 0.64453 0 1.1797-0.22656 1.6094-0.6875 0.4375-0.45703 0.65625-1.0312 0.65625-1.7188v-0.39062zm5.2031-1.2812v6.0625h-3.4375v-1.5781c-0.44922 0.64844-0.96094 1.1211-1.5312 1.4219-0.57422 0.28906-1.2656 0.4375-2.0781 0.4375-1.1055 0-2-0.32031-2.6875-0.96875-0.6875-0.64453-1.0312-1.4766-1.0312-2.5 0-1.25 0.42578-2.1641 1.2812-2.75 0.86328-0.58203 2.2109-0.875 4.0469-0.875h2v-0.26562c0-0.53125-0.21484-0.92188-0.64062-1.1719-0.41797-0.25-1.0742-0.375-1.9688-0.375-0.73047 0-1.4062 0.074219-2.0312 0.21875-0.625 0.14844-1.2109 0.36719-1.75 0.65625v-2.5938c0.72656-0.17578 1.457-0.3125 2.1875-0.40625 0.73828-0.09375 1.4727-0.14062 2.2031-0.14062 1.9141 0 3.3008 0.38281 4.1562 1.1406 0.85156 0.75 1.2812 1.9805 1.2812 3.6875z"/>
  </symbol>
  <symbol id="a" overflow="visible">
   <path d="m5.3438-13.641v3.0156h3.5v2.4219h-3.5v4.5156c0 0.49219 0.097656 0.82422 0.29688 1 0.19531 0.16797 0.58594 0.25 1.1719 0.25h1.7344v2.4375h-2.9062c-1.3438 0-2.2969-0.28125-2.8594-0.84375-0.55469-0.5625-0.82812-1.5078-0.82812-2.8438v-4.5156h-1.7031v-2.4219h1.7031v-3.0156z"/>
  </symbol>
  <symbol id="i" overflow="visible">
   <path d="m8.8594-9.0781v-5.6875h3.4219v14.766h-3.4219v-1.5312c-0.46875 0.625-0.98438 1.0859-1.5469 1.375s-1.2148 0.4375-1.9531 0.4375c-1.3125 0-2.3906-0.51953-3.2344-1.5625-0.83594-1.0391-1.25-2.3828-1.25-4.0312 0-1.6328 0.41406-2.9727 1.25-4.0156 0.84375-1.0391 1.9219-1.5625 3.2344-1.5625 0.73828 0 1.3906 0.15234 1.9531 0.45312 0.5625 0.29297 1.0781 0.74609 1.5469 1.3594zm-2.2344 6.8906c0.72656 0 1.2812-0.26562 1.6562-0.79688 0.38281-0.53125 0.57812-1.3047 0.57812-2.3281 0-1.0078-0.19531-1.7812-0.57812-2.3125-0.375-0.53125-0.92969-0.79688-1.6562-0.79688-0.71875 0-1.2734 0.26562-1.6562 0.79688-0.38672 0.53125-0.57812 1.3047-0.57812 2.3125 0 1.0234 0.19141 1.7969 0.57812 2.3281 0.38281 0.53125 0.9375 0.79688 1.6562 0.79688z"/>
  </symbol>
  <symbol id="n" overflow="visible">
   <path d="m7.2969-2.1875c0.71875 0 1.2695-0.26562 1.6562-0.79688 0.38281-0.53125 0.57812-1.3047 0.57812-2.3281 0-1.0078-0.19531-1.7812-0.57812-2.3125-0.38672-0.53125-0.9375-0.79688-1.6562-0.79688-0.73047 0-1.293 0.27344-1.6875 0.8125-0.38672 0.53125-0.57812 1.2969-0.57812 2.2969 0 1.0117 0.19141 1.7891 0.57812 2.3281 0.39453 0.53125 0.95703 0.79688 1.6875 0.79688zm-2.2656-6.8906c0.46875-0.61328 0.98438-1.0664 1.5469-1.3594 0.57031-0.30078 1.2266-0.45312 1.9688-0.45312 1.3125 0 2.3906 0.52344 3.2344 1.5625 0.84375 1.043 1.2656 2.3828 1.2656 4.0156 0 1.6484-0.42188 2.9922-1.2656 4.0312-0.84375 1.043-1.9219 1.5625-3.2344 1.5625-0.74219 0-1.3984-0.14844-1.9688-0.4375-0.5625-0.30078-1.0781-0.75781-1.5469-1.375v1.5312h-3.4062v-14.766h3.4062z"/>
  </symbol>
  <symbol id="m" overflow="visible">
   <path d="m0.23438-10.625h3.4062l2.8438 7.2031 2.4375-7.2031h3.3906l-4.4688 11.625c-0.44922 1.1875-0.97656 2.0156-1.5781 2.4844-0.59375 0.46875-1.3828 0.70312-2.3594 0.70312h-1.9531v-2.2188h1.0625c0.57031 0 0.98828-0.09375 1.25-0.28125 0.25781-0.17969 0.46094-0.50781 0.60938-0.98438l0.09375-0.29688z"/>
  </symbol>
  <symbol id="h" overflow="visible">
   <path d="m12.312-6.4688v6.4688h-3.4062v-4.9375c0-0.92578-0.023438-1.5625-0.0625-1.9062-0.042969-0.35156-0.11719-0.61328-0.21875-0.78125-0.13672-0.21875-0.32031-0.39062-0.54688-0.51562-0.21875-0.125-0.47656-0.1875-0.76562-0.1875-0.71094 0-1.2656 0.27734-1.6719 0.82812-0.40625 0.54297-0.60938 1.2969-0.60938 2.2656v5.2344h-3.4062v-14.766h3.4062v5.6875c0.50781-0.61328 1.0508-1.0664 1.625-1.3594 0.58203-0.30078 1.2227-0.45312 1.9219-0.45312 1.2188 0 2.1445 0.38281 2.7812 1.1406 0.63281 0.75 0.95312 1.8438 0.95312 3.2812z"/>
  </symbol>
  <symbol id="g" overflow="visible">
   <path d="m12.312-6.4688v6.4688h-3.4062v-4.9531c0-0.91406-0.023438-1.5469-0.0625-1.8906-0.042969-0.35156-0.11719-0.61328-0.21875-0.78125-0.13672-0.21875-0.32031-0.39062-0.54688-0.51562-0.21875-0.125-0.47656-0.1875-0.76562-0.1875-0.71094 0-1.2656 0.27734-1.6719 0.82812-0.40625 0.54297-0.60938 1.2969-0.60938 2.2656v5.2344h-3.4062v-10.625h3.4062v1.5469c0.50781-0.61328 1.0508-1.0664 1.625-1.3594 0.58203-0.30078 1.2227-0.45312 1.9219-0.45312 1.2188 0 2.1445 0.38281 2.7812 1.1406 0.63281 0.75 0.95312 1.8438 0.95312 3.2812z"/>
  </symbol>
  <symbol id="f" overflow="visible">
   <path d="m1.5156-4.1406v-6.4844h3.4219v1.0625c0 0.57422-0.007812 1.2969-0.015625 2.1719v1.7344c0 0.85547 0.019531 1.4688 0.0625 1.8438 0.039063 0.375 0.11328 0.65234 0.21875 0.82812 0.14453 0.21875 0.32812 0.39062 0.54688 0.51562 0.22656 0.11719 0.48828 0.17188 0.78125 0.17188 0.70703 0 1.2656-0.26953 1.6719-0.8125 0.40625-0.53906 0.60938-1.2969 0.60938-2.2656v-5.25h3.3906v10.625h-3.3906v-1.5312c-0.52344 0.61719-1.0703 1.0742-1.6406 1.375-0.5625 0.28906-1.1953 0.4375-1.8906 0.4375-1.2305 0-2.168-0.375-2.8125-1.125-0.63672-0.75781-0.95312-1.8594-0.95312-3.2969z"/>
  </symbol>
  <symbol id="k" overflow="visible">
   <path d="m1.625-10.625h3.4062v10.625h-3.4062zm0-4.1406h3.4062v2.7656h-3.4062z"/>
  </symbol>
  <symbol id="e" overflow="visible">
   <path d="m9.9375-10.297v2.5781c-0.73047-0.30078-1.4336-0.52344-2.1094-0.67188-0.67969-0.15625-1.3203-0.23438-1.9219-0.23438-0.64844 0-1.125 0.085938-1.4375 0.25-0.3125 0.15625-0.46875 0.40234-0.46875 0.73438 0 0.27344 0.11719 0.48047 0.35938 0.625 0.23828 0.14844 0.66406 0.25781 1.2812 0.32812l0.59375 0.078125c1.7383 0.21875 2.9102 0.58594 3.5156 1.0938 0.60156 0.51172 0.90625 1.3086 0.90625 2.3906 0 1.125-0.42188 1.9766-1.2656 2.5469-0.83594 0.57422-2.0781 0.85938-3.7344 0.85938-0.69922 0-1.4219-0.058594-2.1719-0.17188-0.75-0.11328-1.5234-0.28125-2.3125-0.5v-2.5781c0.67578 0.32422 1.3672 0.57031 2.0781 0.73438 0.70703 0.16797 1.4297 0.25 2.1719 0.25 0.66406 0 1.1641-0.085937 1.5-0.26562 0.33203-0.1875 0.5-0.46094 0.5-0.82812 0-0.30078-0.11719-0.52344-0.34375-0.67188-0.23047-0.15625-0.69531-0.26953-1.3906-0.34375l-0.59375-0.078125c-1.5117-0.1875-2.5742-0.53516-3.1875-1.0469-0.60547-0.51953-0.90625-1.3008-0.90625-2.3438 0-1.125 0.38281-1.957 1.1562-2.5 0.78125-0.55078 1.9688-0.82812 3.5625-0.82812 0.625 0 1.2812 0.054687 1.9688 0.15625 0.6875 0.09375 1.4375 0.24219 2.25 0.4375z"/>
  </symbol>
  <symbol id="u" overflow="visible">
   <path d="m1.7812-14.172h3.6562v14.172h-3.6562z"/>
  </symbol>
  <symbol id="t" overflow="visible">
   <path d="m8.625-14.766v2.2344h-1.875c-0.48047 0-0.82031 0.089844-1.0156 0.26562-0.1875 0.16797-0.28125 0.46484-0.28125 0.89062v0.75h2.9062v2.4219h-2.9062v8.2031h-3.3906v-8.2031h-1.6875v-2.4219h1.6875v-0.75c0-1.1562 0.32031-2.0078 0.96875-2.5625 0.64453-0.55078 1.6445-0.82812 3-0.82812z"/>
  </symbol>
  <symbol id="d" overflow="visible">
   <path d="m6.6875-8.4531c-0.75 0-1.3242 0.27344-1.7188 0.8125-0.39844 0.54297-0.59375 1.3203-0.59375 2.3281 0 1.0234 0.19531 1.8047 0.59375 2.3438 0.39453 0.54297 0.96875 0.8125 1.7188 0.8125 0.73828 0 1.3047-0.26953 1.7031-0.8125 0.39453-0.53906 0.59375-1.3203 0.59375-2.3438 0-1.0078-0.19922-1.7852-0.59375-2.3281-0.39844-0.53906-0.96484-0.8125-1.7031-0.8125zm0-2.4375c1.832 0 3.2578 0.49609 4.2812 1.4844 1.0312 0.99219 1.5469 2.3555 1.5469 4.0938 0 1.75-0.51562 3.1211-1.5469 4.1094-1.0234 0.99219-2.4492 1.4844-4.2812 1.4844-1.8359 0-3.2734-0.49219-4.3125-1.4844-1.0312-0.98828-1.5469-2.3594-1.5469-4.1094 0-1.7383 0.51562-3.1016 1.5469-4.0938 1.0391-0.98828 2.4766-1.4844 4.3125-1.4844z"/>
  </symbol>
  <symbol id="s" overflow="visible">
   <path d="m11.484-8.8594c0.42578-0.66406 0.9375-1.1719 1.5312-1.5156s1.2422-0.51562 1.9531-0.51562c1.2188 0 2.1445 0.38281 2.7812 1.1406 0.64453 0.75 0.96875 1.8438 0.96875 3.2812v6.4688h-3.4219v-5.5469c0.007813-0.082031 0.015625-0.16406 0.015625-0.25v-0.375c0-0.75781-0.10938-1.3047-0.32812-1.6406-0.21875-0.34375-0.57812-0.51562-1.0781-0.51562-0.63672 0-1.1328 0.26562-1.4844 0.79688-0.35547 0.53125-0.53906 1.3047-0.54688 2.3125v5.2188h-3.4219v-5.5469c0-1.1758-0.10547-1.9297-0.3125-2.2656-0.19922-0.34375-0.55469-0.51562-1.0625-0.51562-0.65625 0-1.1641 0.27344-1.5156 0.8125-0.35547 0.53125-0.53125 1.293-0.53125 2.2812v5.2344h-3.4219v-10.625h3.4219v1.5469c0.41406-0.59375 0.89453-1.0391 1.4375-1.3438 0.53906-0.3125 1.1328-0.46875 1.7812-0.46875 0.73828 0 1.3906 0.17969 1.9531 0.53125 0.5625 0.35547 0.98828 0.85547 1.2812 1.5z"/>
  </symbol>
  <symbol id="r" overflow="visible">
   <path d="m1.7812-14.172h4.0781l5.1562 9.7188v-9.7188h3.4688v14.172h-4.0781l-5.1562-9.7188v9.7188h-3.4688z"/>
  </symbol>
  <symbol id="q" overflow="visible">
   <path d="m1.7812-14.172h6.0625c1.8008 0 3.1875 0.40234 4.1562 1.2031 0.96875 0.80469 1.4531 1.9453 1.4531 3.4219 0 1.4922-0.48438 2.6367-1.4531 3.4375-0.96875 0.79297-2.3555 1.1875-4.1562 1.1875h-2.4062v4.9219h-3.6562zm3.6562 2.6562v3.9531h2.0156c0.70703 0 1.2539-0.17188 1.6406-0.51562 0.39453-0.34375 0.59375-0.83203 0.59375-1.4688 0-0.63281-0.19922-1.1172-0.59375-1.4531-0.38672-0.34375-0.93359-0.51562-1.6406-0.51562z"/>
  </symbol>
  <symbol id="p" overflow="visible">
   <path d="m1.625-10.625h3.4062v10.438c0 1.4258-0.34375 2.5078-1.0312 3.25-0.67969 0.75-1.668 1.125-2.9688 1.125h-1.6719v-2.2188h0.57812c0.64453 0 1.0859-0.14844 1.3281-0.4375 0.23828-0.29297 0.35938-0.86719 0.35938-1.7188zm0-4.1406h3.4062v2.7656h-3.4062z"/>
  </symbol>
  <symbol id="o" overflow="visible">
   <path d="m10.219-10.297v2.7656c-0.46094-0.3125-0.92188-0.53906-1.3906-0.6875-0.46094-0.15625-0.9375-0.23438-1.4375-0.23438-0.96094 0-1.7031 0.27734-2.2344 0.82812-0.52344 0.55469-0.78125 1.3242-0.78125 2.3125 0 1 0.25781 1.7773 0.78125 2.3281 0.53125 0.55469 1.2734 0.82812 2.2344 0.82812 0.53125 0 1.0312-0.078125 1.5-0.23438 0.47656-0.15625 0.92188-0.39062 1.3281-0.70312v2.7812c-0.53125 0.19922-1.0742 0.34375-1.625 0.4375-0.54297 0.10156-1.0898 0.15625-1.6406 0.15625-1.918 0-3.418-0.48828-4.5-1.4688-1.0859-0.98828-1.625-2.3633-1.625-4.125 0-1.75 0.53906-3.1133 1.625-4.0938 1.082-0.98828 2.582-1.4844 4.5-1.4844 0.5625 0 1.1133 0.054687 1.6562 0.15625 0.53906 0.09375 1.0781 0.24219 1.6094 0.4375z"/>
  </symbol>
 </defs>
 <g>
  <path d="m484 287.85h-5.7422v-91.332l-92.191-103.04h-157.28c-27 0-48.969 21.965-48.969 48.969v275.12c0 27 21.965 48.969 48.969 48.969h200.51c27 0 48.969-21.965 48.969-48.969v-0.17578h5.7422c19.945 0 36.172-16.227 36.172-36.176v-57.188c-0.003907-19.949-16.227-36.172-36.176-36.172zm-91.484-152.17 47.984 53.629h-47.984zm62.414 281.88c0 14.137-11.5 25.637-25.637 25.637l-200.51-0.003906c-14.137 0-25.637-11.5-25.637-25.637v-275.11c0-14.137 11.5-25.637 25.637-25.637h140.4v95.832h85.746v75.207l-122.07 0.003906c-19.945 0-36.176 16.227-36.176 36.176v57.191c0 19.945 16.227 36.176 36.176 36.176h122.06zm41.91-36.352c0 7.0781-5.7539 12.84-12.836 12.84l-151.14 0.003906c-7.082 0-12.84-5.7578-12.84-12.84v-57.191c0-7.0781 5.7578-12.84 12.84-12.84l151.14-0.003907c7.0781 0 12.836 5.7578 12.836 12.84z"/>
  <path d="m360.2 328.77h-27.059v52.492h16.18v-15.883h9.5547c12.059 0 20.586-5.9531 20.586-18.672 0-7.5-5-17.938-19.262-17.938zm-4.6367 24.117h-6.2461v-10.664h7.207c3.9688 0 7.6445 0.29688 7.6445 5.0742-0.003907 5.293-4.4141 5.5898-8.6055 5.5898z"/>
  <path d="m411.44 328.77h-26.543v52.492h23.383c18.305 0 26.832-10.215 26.832-26.32 0.003907-13.23-6.1719-26.172-23.672-26.172zm-4.043 39.043h-6.3203v-25.59h5.1484c11.691 0 12.719 9.1875 12.719 12.504 0 4.918-1.4727 13.086-11.547 13.086z"/>
  <path d="m442.1 381.26h16.18v-20h20.953v-12.492h-20.953v-6.5469h24.41v-13.453h-40.59z"/>
  <use x="69.839844" y="618.332031" xlink:href="#l"/>
  <use x="84.109375" y="618.332031" xlink:href="#c"/>
  <use x="93.699219" y="618.332031" xlink:href="#b"/>
  <use x="106.886719" y="618.332031" xlink:href="#j"/>
  <use x="120.007812" y="618.332031" xlink:href="#a"/>
  <use x="129.300781" y="618.332031" xlink:href="#b"/>
  <use x="142.488281" y="618.332031" xlink:href="#i"/>
  <use x="163.175781" y="618.332031" xlink:href="#n"/>
  <use x="177.097656" y="618.332031" xlink:href="#m"/>
  <use x="196.539062" y="618.332031" xlink:href="#l"/>
  <use x="210.8125" y="618.332031" xlink:href="#h"/>
  <use x="224.652344" y="618.332031" xlink:href="#j"/>
  <use x="237.773438" y="618.332031" xlink:href="#g"/>
  <use x="251.617188" y="618.332031" xlink:href="#f"/>
  <use x="265.460938" y="618.332031" xlink:href="#a"/>
  <use x="281.523438" y="618.332031" xlink:href="#k"/>
  <use x="288.191406" y="618.332031" xlink:href="#e"/>
  <use x="306.53125" y="618.332031" xlink:href="#u"/>
  <use x="313.769531" y="618.332031" xlink:href="#g"/>
  <use x="327.609375" y="618.332031" xlink:href="#i"/>
  <use x="341.527344" y="618.332031" xlink:href="#f"/>
  <use x="355.371094" y="618.332031" xlink:href="#e"/>
  <use x="366.945313" y="618.332031" xlink:href="#a"/>
  <use x="376.242188" y="618.332031" xlink:href="#c"/>
  <use x="385.828125" y="618.332031" xlink:href="#k"/>
  <use x="392.496094" y="618.332031" xlink:href="#b"/>
  <use x="405.683594" y="618.332031" xlink:href="#e"/>
  <use x="69.839844" y="637.777344" xlink:href="#t"/>
  <use x="78.296875" y="637.777344" xlink:href="#c"/>
  <use x="87.886719" y="637.777344" xlink:href="#d"/>
  <use x="101.246094" y="637.777344" xlink:href="#s"/>
  <use x="128.277344" y="637.777344" xlink:href="#a"/>
  <use x="137.570312" y="637.777344" xlink:href="#h"/>
  <use x="151.414062" y="637.777344" xlink:href="#b"/>
  <use x="171.371094" y="637.777344" xlink:href="#r"/>
  <use x="187.644531" y="637.777344" xlink:href="#d"/>
  <use x="201.003906" y="637.777344" xlink:href="#f"/>
  <use x="214.847656" y="637.777344" xlink:href="#g"/>
  <use x="235.457031" y="637.777344" xlink:href="#q"/>
  <use x="249.710938" y="637.777344" xlink:href="#c"/>
  <use x="259.296875" y="637.777344" xlink:href="#d"/>
  <use x="272.65625" y="637.777344" xlink:href="#p"/>
  <use x="279.320313" y="637.777344" xlink:href="#b"/>
  <use x="292.511719" y="637.777344" xlink:href="#o"/>
  <use x="304.035156" y="637.777344" xlink:href="#a"/>
 </g>
</svg>
